<svg width="50" height="50" viewBox="0 0 50 50" fill="none" xmlns="http://www.w3.org/2000/svg">
<g clip-path="url(#clip0)">
<path fill-rule="evenodd" clip-rule="evenodd" d="M40.7083 0C43.5333 0 45.8333 2.3 45.8333 5.15V50L40.4583 45.25L37.4333 42.45L34.2333 39.475L35.5583 44.1H7.20833C4.38333 44.1 2.08333 41.8 2.08333 38.95V5.15C2.08333 2.3 4.38333 0 7.20833 0H40.7083V0ZM31.0583 32.65C36.5833 32.475 38.7083 28.85 38.7083 28.85C38.7083 20.8 35.1083 14.275 35.1083 14.275C31.5083 11.575 28.0833 11.65 28.0833 11.65L27.7333 12.05C31.9833 13.35 33.9583 15.225 33.9583 15.225C31.3583 13.8 28.8083 13.1 26.4333 12.825C24.6333 12.625 22.9083 12.675 21.3833 12.875L20.9583 12.925C20.0833 13 17.9583 13.325 15.2833 14.5C14.3583 14.925 13.8083 15.225 13.8083 15.225C13.8083 15.225 15.8833 13.25 20.3833 11.95L20.1333 11.65C20.1333 11.65 16.7083 11.575 13.1083 14.275C13.1083 14.275 9.50833 20.8 9.50833 28.85C9.50833 28.85 11.6083 32.475 17.1333 32.65C17.1333 32.65 18.0583 31.525 18.8083 30.575C15.6333 29.625 14.4333 27.625 14.4333 27.625L15.1333 28.05L15.2333 28.125L15.3312 28.1812L15.3604 28.1937L15.4583 28.25C16.0833 28.6 16.7083 28.875 17.2833 29.1C18.3083 29.5 19.5333 29.9 20.9583 30.175C22.8333 30.525 25.0333 30.65 27.4333 30.2C28.6083 30 29.8083 29.65 31.0583 29.125C31.9333 28.8 32.9083 28.325 33.9333 27.65C33.9333 27.65 32.6833 29.7 29.4083 30.625C30.1583 31.575 31.0583 32.65 31.0583 32.65V32.65ZM19.4333 20.975C18.0083 20.975 16.8833 22.225 16.8833 23.75C16.8833 25.275 18.0333 26.525 19.4333 26.525C20.8583 26.525 21.9833 25.275 21.9833 23.75C22.0083 22.225 20.8583 20.975 19.4333 20.975ZM28.5583 20.975C27.1333 20.975 26.0083 22.225 26.0083 23.75C26.0083 25.275 27.1583 26.525 28.5583 26.525C29.9833 26.525 31.1083 25.275 31.1083 23.75C31.1083 22.225 29.9833 20.975 28.5583 20.975Z" fill="black"/>
</g>
<defs>
<clipPath id="clip0">
<rect width="50" height="50" fill="white"/>
</clipPath>
</defs>
</svg>
